<mxfile host="65bd71144e">
    <diagram id="xUzG4P2LGu08gM0siAGi" name="Page-1">
        <mxGraphModel dx="506" dy="647" grid="1" gridSize="10" guides="1" tooltips="1" connect="1" arrows="1" fold="1" page="1" pageScale="1" pageWidth="850" pageHeight="1100" math="0" shadow="0">
            <root>
                <mxCell id="0"/>
                <mxCell id="1" parent="0"/>
                <mxCell id="2" value="Usuário" style="rounded=0;whiteSpace=wrap;html=1;" parent="1" vertex="1">
                    <mxGeometry x="110" y="110" width="70" height="30" as="geometry"/>
                </mxCell>
                <mxCell id="3" value="&lt;font size=&quot;3&quot;&gt;Nome&lt;/font&gt;" style="ellipse;whiteSpace=wrap;html=1;" parent="1" vertex="1">
                    <mxGeometry x="120" y="50" width="70" height="30" as="geometry"/>
                </mxCell>
                <mxCell id="4" value="Email" style="ellipse;whiteSpace=wrap;html=1;" parent="1" vertex="1">
                    <mxGeometry x="40" y="60" width="70" height="30" as="geometry"/>
                </mxCell>
                <mxCell id="6" value="Tarefa" style="rounded=0;whiteSpace=wrap;html=1;fontSize=10;" parent="1" vertex="1">
                    <mxGeometry x="360" y="110" width="70" height="30" as="geometry"/>
                </mxCell>
                <mxCell id="7" value="Atribuído" style="rhombus;whiteSpace=wrap;html=1;fontSize=10;" parent="1" vertex="1">
                    <mxGeometry x="220" y="95" width="60" height="60" as="geometry"/>
                </mxCell>
                <mxCell id="8" value="&lt;font size=&quot;3&quot;&gt;Nome&lt;/font&gt;" style="ellipse;whiteSpace=wrap;html=1;" parent="1" vertex="1">
                    <mxGeometry x="450" y="20" width="70" height="30" as="geometry"/>
                </mxCell>
                <mxCell id="9" value="Descrição" style="ellipse;whiteSpace=wrap;html=1;" parent="1" vertex="1">
                    <mxGeometry x="290" y="20" width="70" height="30" as="geometry"/>
                </mxCell>
                <mxCell id="11" value="&lt;font size=&quot;3&quot;&gt;Estado&lt;/font&gt;" style="ellipse;whiteSpace=wrap;html=1;" parent="1" vertex="1">
                    <mxGeometry x="370" y="20" width="70" height="30" as="geometry"/>
                </mxCell>
                <mxCell id="12" value="Prazo" style="ellipse;whiteSpace=wrap;html=1;" parent="1" vertex="1">
                    <mxGeometry x="270" y="60" width="70" height="30" as="geometry"/>
                </mxCell>
                <mxCell id="13" value="Data_Inicio" style="ellipse;whiteSpace=wrap;html=1;" parent="1" vertex="1">
                    <mxGeometry x="520" y="30" width="70" height="30" as="geometry"/>
                </mxCell>
                <mxCell id="14" value="Data_fim" style="ellipse;whiteSpace=wrap;html=1;" parent="1" vertex="1">
                    <mxGeometry x="450" y="110" width="70" height="30" as="geometry"/>
                </mxCell>
                <mxCell id="17" value="Tempo Gasto" style="ellipse;whiteSpace=wrap;html=1;align=center;dashed=1;shadow=1;fontSize=10;" parent="1" vertex="1">
                    <mxGeometry x="490" y="155" width="70" height="30" as="geometry"/>
                </mxCell>
                <mxCell id="18" value="Ambiente" style="rounded=0;whiteSpace=wrap;html=1;shadow=1;fontSize=10;" parent="1" vertex="1">
                    <mxGeometry x="215" y="250" width="70" height="30" as="geometry"/>
                </mxCell>
                <mxCell id="19" value="" style="endArrow=none;html=1;fontSize=10;entryX=0;entryY=0.5;entryDx=0;entryDy=0;exitX=0.5;exitY=0;exitDx=0;exitDy=0;" parent="1" source="6" target="13" edge="1">
                    <mxGeometry width="50" height="50" relative="1" as="geometry">
                        <mxPoint x="400" y="130" as="sourcePoint"/>
                        <mxPoint x="450" y="80" as="targetPoint"/>
                    </mxGeometry>
                </mxCell>
                <mxCell id="20" value="" style="endArrow=none;html=1;fontSize=10;entryX=0;entryY=1;entryDx=0;entryDy=0;exitX=0.5;exitY=0;exitDx=0;exitDy=0;" parent="1" source="6" target="8" edge="1">
                    <mxGeometry width="50" height="50" relative="1" as="geometry">
                        <mxPoint x="400" y="130" as="sourcePoint"/>
                        <mxPoint x="450" y="80" as="targetPoint"/>
                        <Array as="points">
                            <mxPoint x="410" y="80"/>
                        </Array>
                    </mxGeometry>
                </mxCell>
                <mxCell id="21" value="" style="endArrow=none;html=1;fontSize=10;entryX=0;entryY=0.5;entryDx=0;entryDy=0;exitX=1;exitY=0.5;exitDx=0;exitDy=0;" parent="1" source="6" target="14" edge="1">
                    <mxGeometry width="50" height="50" relative="1" as="geometry">
                        <mxPoint x="400" y="130" as="sourcePoint"/>
                        <mxPoint x="450" y="80" as="targetPoint"/>
                    </mxGeometry>
                </mxCell>
                <mxCell id="22" value="" style="endArrow=none;html=1;fontSize=10;entryX=0.5;entryY=1;entryDx=0;entryDy=0;exitX=0.5;exitY=0;exitDx=0;exitDy=0;" parent="1" source="6" target="11" edge="1">
                    <mxGeometry width="50" height="50" relative="1" as="geometry">
                        <mxPoint x="410" y="130" as="sourcePoint"/>
                        <mxPoint x="460" y="80" as="targetPoint"/>
                    </mxGeometry>
                </mxCell>
                <mxCell id="23" value="" style="endArrow=none;html=1;fontSize=10;entryX=1;entryY=1;entryDx=0;entryDy=0;exitX=0.5;exitY=0;exitDx=0;exitDy=0;" parent="1" source="6" target="9" edge="1">
                    <mxGeometry width="50" height="50" relative="1" as="geometry">
                        <mxPoint x="410" y="130" as="sourcePoint"/>
                        <mxPoint x="460" y="80" as="targetPoint"/>
                        <Array as="points">
                            <mxPoint x="380" y="70"/>
                        </Array>
                    </mxGeometry>
                </mxCell>
                <mxCell id="24" value="" style="endArrow=none;html=1;fontSize=10;entryX=1;entryY=0.5;entryDx=0;entryDy=0;exitX=0.495;exitY=-0.1;exitDx=0;exitDy=0;exitPerimeter=0;" parent="1" source="6" edge="1">
                    <mxGeometry width="50" height="50" relative="1" as="geometry">
                        <mxPoint x="410" y="130" as="sourcePoint"/>
                        <mxPoint x="339.9999999999991" y="75" as="targetPoint"/>
                        <Array as="points">
                            <mxPoint x="370" y="80"/>
                        </Array>
                    </mxGeometry>
                </mxCell>
                <mxCell id="25" value="" style="endArrow=none;html=1;fontSize=10;entryX=0;entryY=0.5;entryDx=0;entryDy=0;exitX=1;exitY=1;exitDx=0;exitDy=0;" parent="1" source="6" target="17" edge="1">
                    <mxGeometry width="50" height="50" relative="1" as="geometry">
                        <mxPoint x="410" y="130" as="sourcePoint"/>
                        <mxPoint x="460" y="80" as="targetPoint"/>
                        <Array as="points">
                            <mxPoint x="430" y="170"/>
                        </Array>
                    </mxGeometry>
                </mxCell>
                <mxCell id="26" value="" style="endArrow=none;html=1;fontSize=10;entryX=0.5;entryY=1;entryDx=0;entryDy=0;exitX=0.5;exitY=0;exitDx=0;exitDy=0;" parent="1" source="2" target="3" edge="1">
                    <mxGeometry width="50" height="50" relative="1" as="geometry">
                        <mxPoint x="140" y="130" as="sourcePoint"/>
                        <mxPoint x="190" y="80" as="targetPoint"/>
                        <Array as="points">
                            <mxPoint x="160" y="100"/>
                        </Array>
                    </mxGeometry>
                </mxCell>
                <mxCell id="27" value="" style="endArrow=none;html=1;fontSize=10;entryX=1;entryY=1;entryDx=0;entryDy=0;exitX=0.5;exitY=0;exitDx=0;exitDy=0;" parent="1" source="2" target="4" edge="1">
                    <mxGeometry width="50" height="50" relative="1" as="geometry">
                        <mxPoint x="140" y="130" as="sourcePoint"/>
                        <mxPoint x="190" y="80" as="targetPoint"/>
                        <Array as="points"/>
                    </mxGeometry>
                </mxCell>
                <mxCell id="28" value="" style="endArrow=none;html=1;rounded=0;fontSize=10;exitX=1;exitY=0.5;exitDx=0;exitDy=0;entryX=0;entryY=0.5;entryDx=0;entryDy=0;" parent="1" source="2" target="7" edge="1">
                    <mxGeometry relative="1" as="geometry">
                        <mxPoint x="160" y="110" as="sourcePoint"/>
                        <mxPoint x="320" y="110" as="targetPoint"/>
                    </mxGeometry>
                </mxCell>
                <mxCell id="31" value="m" style="text;html=1;strokeColor=none;fillColor=none;align=center;verticalAlign=middle;whiteSpace=wrap;rounded=0;shadow=1;fontSize=10;" parent="1" vertex="1">
                    <mxGeometry x="170" y="110" width="40" height="20" as="geometry"/>
                </mxCell>
                <mxCell id="MVlRNSNjMbKyrB4dj1rr-33" value="n" style="text;html=1;strokeColor=none;fillColor=none;align=center;verticalAlign=middle;whiteSpace=wrap;rounded=0;shadow=1;fontSize=10;" parent="1" vertex="1">
                    <mxGeometry x="175" y="240" width="60" height="30" as="geometry"/>
                </mxCell>
                <mxCell id="MVlRNSNjMbKyrB4dj1rr-34" value="n" style="text;html=1;strokeColor=none;fillColor=none;align=center;verticalAlign=middle;whiteSpace=wrap;rounded=0;shadow=1;fontSize=10;" parent="1" vertex="1">
                    <mxGeometry x="360" y="130" width="60" height="30" as="geometry"/>
                </mxCell>
                <mxCell id="MVlRNSNjMbKyrB4dj1rr-35" value="" style="endArrow=none;html=1;fontSize=10;entryX=0.5;entryY=1;entryDx=0;entryDy=0;exitX=1;exitY=0.5;exitDx=0;exitDy=0;" parent="1" source="MVlRNSNjMbKyrB4dj1rr-41" target="18" edge="1">
                    <mxGeometry width="50" height="50" relative="1" as="geometry">
                        <mxPoint x="200" y="330" as="sourcePoint"/>
                        <mxPoint x="270" y="320" as="targetPoint"/>
                    </mxGeometry>
                </mxCell>
                <mxCell id="MVlRNSNjMbKyrB4dj1rr-36" value="Id_Tarefa" style="ellipse;whiteSpace=wrap;html=1;" parent="1" vertex="1">
                    <mxGeometry x="490" y="70" width="70" height="30" as="geometry"/>
                </mxCell>
                <mxCell id="MVlRNSNjMbKyrB4dj1rr-37" value="" style="endArrow=none;html=1;fontSize=10;exitX=0;exitY=1;exitDx=0;exitDy=0;entryX=1;entryY=1;entryDx=0;entryDy=0;" parent="1" source="MVlRNSNjMbKyrB4dj1rr-36" target="MVlRNSNjMbKyrB4dj1rr-36" edge="1">
                    <mxGeometry width="50" height="50" relative="1" as="geometry">
                        <mxPoint x="580" y="130" as="sourcePoint"/>
                        <mxPoint x="630" y="80" as="targetPoint"/>
                    </mxGeometry>
                </mxCell>
                <mxCell id="MVlRNSNjMbKyrB4dj1rr-38" value="" style="endArrow=none;html=1;fontSize=10;entryX=0;entryY=0.5;entryDx=0;entryDy=0;exitX=0.5;exitY=0;exitDx=0;exitDy=0;" parent="1" source="6" target="MVlRNSNjMbKyrB4dj1rr-36" edge="1">
                    <mxGeometry width="50" height="50" relative="1" as="geometry">
                        <mxPoint x="490" y="230" as="sourcePoint"/>
                        <mxPoint x="540" y="180" as="targetPoint"/>
                    </mxGeometry>
                </mxCell>
                <mxCell id="MVlRNSNjMbKyrB4dj1rr-40" value="Nome" style="ellipse;whiteSpace=wrap;html=1;" parent="1" vertex="1">
                    <mxGeometry x="130" y="330" width="70" height="30" as="geometry"/>
                </mxCell>
                <mxCell id="MVlRNSNjMbKyrB4dj1rr-41" value="Criador" style="ellipse;whiteSpace=wrap;html=1;" parent="1" vertex="1">
                    <mxGeometry x="125" y="290" width="70" height="30" as="geometry"/>
                </mxCell>
                <mxCell id="MVlRNSNjMbKyrB4dj1rr-42" value="" style="endArrow=none;html=1;fontSize=10;entryX=0.5;entryY=1;entryDx=0;entryDy=0;exitX=0.5;exitY=0;exitDx=0;exitDy=0;" parent="1" source="MVlRNSNjMbKyrB4dj1rr-40" target="18" edge="1">
                    <mxGeometry width="50" height="50" relative="1" as="geometry">
                        <mxPoint x="260" y="230" as="sourcePoint"/>
                        <mxPoint x="250" y="290" as="targetPoint"/>
                    </mxGeometry>
                </mxCell>
                <mxCell id="MVlRNSNjMbKyrB4dj1rr-44" value="data_criação" style="ellipse;whiteSpace=wrap;html=1;" parent="1" vertex="1">
                    <mxGeometry x="285" y="290" width="70" height="30" as="geometry"/>
                </mxCell>
                <mxCell id="MVlRNSNjMbKyrB4dj1rr-47" value="" style="endArrow=none;html=1;fontSize=10;entryX=0;entryY=0.5;entryDx=0;entryDy=0;exitX=0.5;exitY=1;exitDx=0;exitDy=0;" parent="1" source="18" target="MVlRNSNjMbKyrB4dj1rr-44" edge="1">
                    <mxGeometry width="50" height="50" relative="1" as="geometry">
                        <mxPoint x="260" y="230" as="sourcePoint"/>
                        <mxPoint x="310" y="180" as="targetPoint"/>
                    </mxGeometry>
                </mxCell>
                <mxCell id="MVlRNSNjMbKyrB4dj1rr-49" value="Pertence&amp;nbsp;" style="rhombus;whiteSpace=wrap;html=1;fontSize=10;" parent="1" vertex="1">
                    <mxGeometry x="115" y="170" width="60" height="60" as="geometry"/>
                </mxCell>
                <mxCell id="MVlRNSNjMbKyrB4dj1rr-51" value="" style="endArrow=none;html=1;fontSize=10;entryX=0;entryY=0.5;entryDx=0;entryDy=0;exitX=0.5;exitY=1;exitDx=0;exitDy=0;" parent="1" source="MVlRNSNjMbKyrB4dj1rr-49" target="18" edge="1">
                    <mxGeometry width="50" height="50" relative="1" as="geometry">
                        <mxPoint x="125" y="280" as="sourcePoint"/>
                        <mxPoint x="175" y="230" as="targetPoint"/>
                        <Array as="points">
                            <mxPoint x="145" y="265"/>
                        </Array>
                    </mxGeometry>
                </mxCell>
                <mxCell id="MVlRNSNjMbKyrB4dj1rr-54" value="Possuí" style="rhombus;whiteSpace=wrap;html=1;fontSize=10;" parent="1" vertex="1">
                    <mxGeometry x="365" y="180" width="60" height="60" as="geometry"/>
                </mxCell>
                <mxCell id="MVlRNSNjMbKyrB4dj1rr-55" value="" style="endArrow=none;html=1;fontSize=10;exitX=0.5;exitY=0;exitDx=0;exitDy=0;entryX=0.5;entryY=1;entryDx=0;entryDy=0;" parent="1" source="MVlRNSNjMbKyrB4dj1rr-54" target="6" edge="1">
                    <mxGeometry width="50" height="50" relative="1" as="geometry">
                        <mxPoint x="310" y="140" as="sourcePoint"/>
                        <mxPoint x="390" y="160" as="targetPoint"/>
                    </mxGeometry>
                </mxCell>
                <mxCell id="MVlRNSNjMbKyrB4dj1rr-59" value="Administrar" style="rhombus;whiteSpace=wrap;html=1;fontSize=10;" parent="1" vertex="1">
                    <mxGeometry x="235" y="170" width="60" height="60" as="geometry"/>
                </mxCell>
                <mxCell id="MVlRNSNjMbKyrB4dj1rr-61" value="" style="endArrow=none;html=1;fontSize=10;exitX=0.5;exitY=0;exitDx=0;exitDy=0;entryX=0.5;entryY=1;entryDx=0;entryDy=0;" parent="1" source="18" target="MVlRNSNjMbKyrB4dj1rr-59" edge="1">
                    <mxGeometry width="50" height="50" relative="1" as="geometry">
                        <mxPoint x="260" y="225" as="sourcePoint"/>
                        <mxPoint x="310" y="175" as="targetPoint"/>
                    </mxGeometry>
                </mxCell>
                <mxCell id="MVlRNSNjMbKyrB4dj1rr-62" value="n" style="text;html=1;strokeColor=none;fillColor=none;align=center;verticalAlign=middle;whiteSpace=wrap;rounded=0;shadow=1;fontSize=10;" parent="1" vertex="1">
                    <mxGeometry x="220" y="220" width="60" height="30" as="geometry"/>
                </mxCell>
                <mxCell id="MVlRNSNjMbKyrB4dj1rr-65" value="email_adm" style="ellipse;whiteSpace=wrap;html=1;" parent="1" vertex="1">
                    <mxGeometry x="290" y="330" width="70" height="30" as="geometry"/>
                </mxCell>
                <mxCell id="MVlRNSNjMbKyrB4dj1rr-66" value="" style="endArrow=none;html=1;fontSize=10;exitX=0;exitY=0;exitDx=0;exitDy=0;" parent="1" source="MVlRNSNjMbKyrB4dj1rr-65" edge="1">
                    <mxGeometry width="50" height="50" relative="1" as="geometry">
                        <mxPoint x="350" y="350" as="sourcePoint"/>
                        <mxPoint x="250" y="280" as="targetPoint"/>
                    </mxGeometry>
                </mxCell>
                <mxCell id="MVlRNSNjMbKyrB4dj1rr-68" value="" style="shape=link;html=1;rounded=0;fontSize=10;entryX=1;entryY=1;entryDx=0;entryDy=0;exitX=0;exitY=0;exitDx=0;exitDy=0;" parent="1" source="MVlRNSNjMbKyrB4dj1rr-59" target="2" edge="1">
                    <mxGeometry relative="1" as="geometry">
                        <mxPoint x="75" y="180" as="sourcePoint"/>
                        <mxPoint x="235" y="180" as="targetPoint"/>
                    </mxGeometry>
                </mxCell>
                <mxCell id="MVlRNSNjMbKyrB4dj1rr-69" value="1" style="resizable=0;html=1;align=right;verticalAlign=bottom;shadow=1;fontSize=10;" parent="MVlRNSNjMbKyrB4dj1rr-68" connectable="0" vertex="1">
                    <mxGeometry x="1" relative="1" as="geometry">
                        <mxPoint y="20" as="offset"/>
                    </mxGeometry>
                </mxCell>
                <mxCell id="MVlRNSNjMbKyrB4dj1rr-70" value="" style="shape=link;html=1;rounded=0;fontSize=10;entryX=0.5;entryY=1;entryDx=0;entryDy=0;exitX=0.5;exitY=0;exitDx=0;exitDy=0;" parent="1" source="MVlRNSNjMbKyrB4dj1rr-49" target="2" edge="1">
                    <mxGeometry relative="1" as="geometry">
                        <mxPoint x="90" y="190" as="sourcePoint"/>
                        <mxPoint x="80" y="210" as="targetPoint"/>
                    </mxGeometry>
                </mxCell>
                <mxCell id="MVlRNSNjMbKyrB4dj1rr-71" value="m" style="resizable=0;html=1;align=right;verticalAlign=bottom;shadow=1;fontSize=10;" parent="MVlRNSNjMbKyrB4dj1rr-70" connectable="0" vertex="1">
                    <mxGeometry x="1" relative="1" as="geometry">
                        <mxPoint x="-5" y="15" as="offset"/>
                    </mxGeometry>
                </mxCell>
                <mxCell id="MVlRNSNjMbKyrB4dj1rr-72" value="" style="shape=link;html=1;rounded=0;fontSize=10;entryX=1;entryY=0.5;entryDx=0;entryDy=0;exitX=0;exitY=1;exitDx=0;exitDy=0;" parent="1" source="MVlRNSNjMbKyrB4dj1rr-54" target="18" edge="1">
                    <mxGeometry relative="1" as="geometry">
                        <mxPoint x="355" y="290" as="sourcePoint"/>
                        <mxPoint x="515" y="290" as="targetPoint"/>
                    </mxGeometry>
                </mxCell>
                <mxCell id="MVlRNSNjMbKyrB4dj1rr-73" value="1" style="resizable=0;html=1;align=right;verticalAlign=bottom;shadow=1;fontSize=10;" parent="MVlRNSNjMbKyrB4dj1rr-72" connectable="0" vertex="1">
                    <mxGeometry x="1" relative="1" as="geometry">
                        <mxPoint x="10" y="-10" as="offset"/>
                    </mxGeometry>
                </mxCell>
                <mxCell id="MVlRNSNjMbKyrB4dj1rr-75" value="qtd_membros" style="ellipse;whiteSpace=wrap;html=1;align=center;dashed=1;shadow=1;fontSize=10;" parent="1" vertex="1">
                    <mxGeometry x="155" y="360" width="70" height="30" as="geometry"/>
                </mxCell>
                <mxCell id="MVlRNSNjMbKyrB4dj1rr-76" value="" style="endArrow=none;html=1;fontSize=10;entryX=0.5;entryY=1;entryDx=0;entryDy=0;exitX=0.571;exitY=0;exitDx=0;exitDy=0;exitPerimeter=0;" parent="1" source="MVlRNSNjMbKyrB4dj1rr-75" target="18" edge="1">
                    <mxGeometry width="50" height="50" relative="1" as="geometry">
                        <mxPoint x="270" y="250" as="sourcePoint"/>
                        <mxPoint x="320" y="200" as="targetPoint"/>
                    </mxGeometry>
                </mxCell>
                <mxCell id="MVlRNSNjMbKyrB4dj1rr-77" value="n° telefone" style="ellipse;whiteSpace=wrap;html=1;" parent="1" vertex="1">
                    <mxGeometry x="10" y="105" width="70" height="30" as="geometry"/>
                </mxCell>
                <mxCell id="MVlRNSNjMbKyrB4dj1rr-78" value="" style="endArrow=none;html=1;fontSize=10;entryX=1;entryY=1;entryDx=0;entryDy=0;exitX=0;exitY=1;exitDx=0;exitDy=0;" parent="1" source="MVlRNSNjMbKyrB4dj1rr-77" target="MVlRNSNjMbKyrB4dj1rr-77" edge="1">
                    <mxGeometry width="50" height="50" relative="1" as="geometry">
                        <mxPoint x="220" y="215" as="sourcePoint"/>
                        <mxPoint x="270" y="165" as="targetPoint"/>
                    </mxGeometry>
                </mxCell>
                <mxCell id="MVlRNSNjMbKyrB4dj1rr-79" value="" style="endArrow=none;html=1;fontSize=10;entryX=0;entryY=0.5;entryDx=0;entryDy=0;exitX=1;exitY=0.5;exitDx=0;exitDy=0;" parent="1" source="MVlRNSNjMbKyrB4dj1rr-77" target="2" edge="1">
                    <mxGeometry width="50" height="50" relative="1" as="geometry">
                        <mxPoint x="70" y="250" as="sourcePoint"/>
                        <mxPoint x="120" y="200" as="targetPoint"/>
                    </mxGeometry>
                </mxCell>
                <mxCell id="33" value="id_ambiente" style="ellipse;whiteSpace=wrap;html=1;" parent="1" vertex="1">
                    <mxGeometry x="230" y="360" width="70" height="30" as="geometry"/>
                </mxCell>
                <mxCell id="34" value="" style="endArrow=none;html=1;fontSize=10;entryX=1;entryY=1;entryDx=0;entryDy=0;exitX=0;exitY=1;exitDx=0;exitDy=0;" parent="1" source="33" target="33" edge="1">
                    <mxGeometry width="50" height="50" relative="1" as="geometry">
                        <mxPoint x="470" y="500" as="sourcePoint"/>
                        <mxPoint x="520" y="450" as="targetPoint"/>
                    </mxGeometry>
                </mxCell>
                <mxCell id="35" value="" style="endArrow=none;html=1;entryX=0.5;entryY=1;entryDx=0;entryDy=0;exitX=0.5;exitY=0;exitDx=0;exitDy=0;" parent="1" source="33" target="18" edge="1">
                    <mxGeometry width="50" height="50" relative="1" as="geometry">
                        <mxPoint x="120" y="430" as="sourcePoint"/>
                        <mxPoint x="170" y="380" as="targetPoint"/>
                    </mxGeometry>
                </mxCell>
                <mxCell id="36" value="" style="endArrow=none;html=1;entryX=0;entryY=0.5;entryDx=0;entryDy=0;exitX=1;exitY=0.5;exitDx=0;exitDy=0;" edge="1" parent="1" source="7" target="6">
                    <mxGeometry width="50" height="50" relative="1" as="geometry">
                        <mxPoint x="290" y="180" as="sourcePoint"/>
                        <mxPoint x="340" y="130" as="targetPoint"/>
                    </mxGeometry>
                </mxCell>
                <mxCell id="37" value="n" style="text;html=1;strokeColor=none;fillColor=none;align=center;verticalAlign=middle;whiteSpace=wrap;rounded=0;" vertex="1" parent="1">
                    <mxGeometry x="320" y="100" width="60" height="30" as="geometry"/>
                </mxCell>
            </root>
        </mxGraphModel>
    </diagram>
    <diagram id="89CNunF7tWzUwpjxmn6a" name="Page-2">
        <mxGraphModel dx="506" dy="647" grid="1" gridSize="10" guides="1" tooltips="1" connect="1" arrows="1" fold="1" page="1" pageScale="1" pageWidth="850" pageHeight="1100" math="0" shadow="0">
            <root>
                <mxCell id="0"/>
                <mxCell id="1" parent="0"/>
            </root>
        </mxGraphModel>
    </diagram>
</mxfile>